<mxfile host="Electron" modified="2023-12-04T13:33:28.630Z" agent="Mozilla/5.0 (Windows NT 10.0; Win64; x64) AppleWebKit/537.36 (KHTML, like Gecko) draw.io/21.6.8 Chrome/114.0.5735.289 Electron/25.5.0 Safari/537.36" etag="sDMvL1I72JSfU4C7b_eL" version="21.6.8" type="device">
  <diagram name="Página-1" id="S6Cazga8lZf7gi2Ayobz">
    <mxGraphModel dx="978" dy="1735" grid="1" gridSize="10" guides="1" tooltips="1" connect="1" arrows="1" fold="1" page="1" pageScale="1" pageWidth="827" pageHeight="1169" math="0" shadow="0">
      <root>
        <mxCell id="0" />
        <mxCell id="1" parent="0" />
        <mxCell id="hUBao5RLRArQZl7CWAjw-39" style="edgeStyle=orthogonalEdgeStyle;rounded=0;orthogonalLoop=1;jettySize=auto;html=1;endArrow=none;endFill=0;dashed=1;" parent="1" source="hUBao5RLRArQZl7CWAjw-40" edge="1">
          <mxGeometry relative="1" as="geometry">
            <mxPoint x="115" y="-720" as="targetPoint" />
          </mxGeometry>
        </mxCell>
        <mxCell id="hUBao5RLRArQZl7CWAjw-40" value=":Proprietário" style="html=1;whiteSpace=wrap;" parent="1" vertex="1">
          <mxGeometry x="60" y="-1080" width="110" height="50" as="geometry" />
        </mxCell>
        <mxCell id="hUBao5RLRArQZl7CWAjw-41" style="edgeStyle=orthogonalEdgeStyle;rounded=0;orthogonalLoop=1;jettySize=auto;html=1;dashed=1;endArrow=none;endFill=0;" parent="1" source="hUBao5RLRArQZl7CWAjw-42" edge="1">
          <mxGeometry relative="1" as="geometry">
            <mxPoint x="345" y="-720" as="targetPoint" />
          </mxGeometry>
        </mxCell>
        <mxCell id="hUBao5RLRArQZl7CWAjw-42" value=":Sistema" style="html=1;whiteSpace=wrap;" parent="1" vertex="1">
          <mxGeometry x="290" y="-1080" width="110" height="50" as="geometry" />
        </mxCell>
        <mxCell id="hUBao5RLRArQZl7CWAjw-43" value="" style="html=1;points=[[0,0,0,0,5],[0,1,0,0,-5],[1,0,0,0,5],[1,1,0,0,-5]];perimeter=orthogonalPerimeter;outlineConnect=0;targetShapes=umlLifeline;portConstraint=eastwest;newEdgeStyle={&quot;curved&quot;:0,&quot;rounded&quot;:0};" parent="1" vertex="1">
          <mxGeometry x="340" y="-830" width="10" height="80" as="geometry" />
        </mxCell>
        <mxCell id="hUBao5RLRArQZl7CWAjw-44" value="2.1 getProjects(propertyId);" style="html=1;verticalAlign=bottom;endArrow=block;curved=0;rounded=0;entryX=0;entryY=0;entryDx=0;entryDy=5;exitX=1;exitY=0;exitDx=0;exitDy=5;exitPerimeter=0;" parent="1" source="hUBao5RLRArQZl7CWAjw-46" target="hUBao5RLRArQZl7CWAjw-43" edge="1">
          <mxGeometry relative="1" as="geometry">
            <mxPoint x="115" y="-825" as="sourcePoint" />
            <mxPoint as="offset" />
          </mxGeometry>
        </mxCell>
        <mxCell id="hUBao5RLRArQZl7CWAjw-45" value="2.2 return projects;" style="html=1;verticalAlign=bottom;endArrow=open;endSize=8;curved=0;rounded=0;exitX=0;exitY=1;exitDx=0;exitDy=-5;entryX=1;entryY=1;entryDx=0;entryDy=-5;entryPerimeter=0;" parent="1" source="hUBao5RLRArQZl7CWAjw-43" target="hUBao5RLRArQZl7CWAjw-46" edge="1">
          <mxGeometry relative="1" as="geometry">
            <mxPoint x="115" y="-754" as="targetPoint" />
          </mxGeometry>
        </mxCell>
        <mxCell id="hUBao5RLRArQZl7CWAjw-46" value="" style="html=1;points=[[0,0,0,0,5],[0,1,0,0,-5],[1,0,0,0,5],[1,1,0,0,-5]];perimeter=orthogonalPerimeter;outlineConnect=0;targetShapes=umlLifeline;portConstraint=eastwest;newEdgeStyle={&quot;curved&quot;:0,&quot;rounded&quot;:0};" parent="1" vertex="1">
          <mxGeometry x="110" y="-830" width="10" height="80" as="geometry" />
        </mxCell>
        <mxCell id="8WWMpFvnL93rw0MbP9jw-2" value="" style="html=1;points=[[0,0,0,0,5],[0,1,0,0,-5],[1,0,0,0,5],[1,1,0,0,-5]];perimeter=orthogonalPerimeter;outlineConnect=0;targetShapes=umlLifeline;portConstraint=eastwest;newEdgeStyle={&quot;curved&quot;:0,&quot;rounded&quot;:0};" vertex="1" parent="1">
          <mxGeometry x="340" y="-990" width="10" height="80" as="geometry" />
        </mxCell>
        <mxCell id="8WWMpFvnL93rw0MbP9jw-3" value="1.1 getProperties(ownerId);" style="html=1;verticalAlign=bottom;endArrow=block;curved=0;rounded=0;entryX=0;entryY=0;entryDx=0;entryDy=5;exitX=1;exitY=0;exitDx=0;exitDy=5;exitPerimeter=0;" edge="1" parent="1" source="8WWMpFvnL93rw0MbP9jw-5" target="8WWMpFvnL93rw0MbP9jw-2">
          <mxGeometry relative="1" as="geometry">
            <mxPoint x="115" y="-985" as="sourcePoint" />
            <mxPoint as="offset" />
          </mxGeometry>
        </mxCell>
        <mxCell id="8WWMpFvnL93rw0MbP9jw-4" value="1.2 return properties;" style="html=1;verticalAlign=bottom;endArrow=open;endSize=8;curved=0;rounded=0;exitX=0;exitY=1;exitDx=0;exitDy=-5;entryX=1;entryY=1;entryDx=0;entryDy=-5;entryPerimeter=0;" edge="1" parent="1" source="8WWMpFvnL93rw0MbP9jw-2" target="8WWMpFvnL93rw0MbP9jw-5">
          <mxGeometry relative="1" as="geometry">
            <mxPoint x="115" y="-914" as="targetPoint" />
          </mxGeometry>
        </mxCell>
        <mxCell id="8WWMpFvnL93rw0MbP9jw-5" value="" style="html=1;points=[[0,0,0,0,5],[0,1,0,0,-5],[1,0,0,0,5],[1,1,0,0,-5]];perimeter=orthogonalPerimeter;outlineConnect=0;targetShapes=umlLifeline;portConstraint=eastwest;newEdgeStyle={&quot;curved&quot;:0,&quot;rounded&quot;:0};" vertex="1" parent="1">
          <mxGeometry x="110" y="-990" width="10" height="80" as="geometry" />
        </mxCell>
        <mxCell id="8WWMpFvnL93rw0MbP9jw-6" value="loop" style="shape=umlFrame;whiteSpace=wrap;html=1;pointerEvents=0;" vertex="1" parent="1">
          <mxGeometry x="90" y="-870" width="280" height="140" as="geometry" />
        </mxCell>
      </root>
    </mxGraphModel>
  </diagram>
</mxfile>
